# xmcd
#
# Track frame offsets:
#	150
#	15317
#	27310
#	42206
#	54743
#	68552
#	80958
#	92882
#	107218
#	120012
#
# Disc length: 1830 seconds
#
# Revision: 0
# Processed by: cddbd v1.4PL0 Copyright (c) Steve Scherf et al.
# Submitted via: EasyCDDAExtractor 4.6.9.1
#
DISCID=7807240a
DTITLE=George Jones - Wine Colored Roses
DYEAR=1986
DGENRE=Country
TTITLE0=Wine Colored Roses            
TTITLE1=I Turn To You                 
TTITLE2=The Right Left Hand           
TTITLE3=Don't Leave Without Taking Your Silver
TTITLE4=The Very Best Of Me           
TTITLE5=Hopelessly Yours              
TTITLE6=You Never Looked That Good (When You Were Mine)
TTITLE7=If Only Your Eyes Could Lie   
TTITLE8=Ol' Frank                     
TTITLE9=These Old Eyes Have Seen It All
EXTD=
EXTT0=
EXTT1=
EXTT2=
EXTT3=
EXTT4=
EXTT5=
EXTT6=
EXTT7=
EXTT8=
EXTT9=
PLAYORDER=
